<svg width="12" height="16" viewBox="0 0 12 16" fill="none" xmlns="http://www.w3.org/2000/svg">
<path d="M10.9656 5.76781C10.9656 8.34415 5.89161 14.5626 5.89161 14.5626C5.89161 14.5626 0.817627 8.34415 0.817627 5.76781C0.817627 4.53294 1.35221 3.34866 2.30376 2.47548C3.25532 1.6023 4.5459 1.11176 5.89161 1.11176C7.23731 1.11176 8.5279 1.6023 9.47945 2.47548C10.431 3.34866 10.9656 4.53294 10.9656 5.76781Z" stroke="#C5A059" stroke-width="1.3" stroke-linecap="round" stroke-linejoin="round"/>
<path d="M5.89103 7.31991C6.82513 7.31991 7.58236 6.62505 7.58236 5.7679C7.58236 4.91074 6.82513 4.21588 5.89103 4.21588C4.95694 4.21588 4.19971 4.91074 4.19971 5.7679C4.19971 6.62505 4.95694 7.31991 5.89103 7.31991Z" stroke="#C5A059" stroke-width="1.3" stroke-linecap="round" stroke-linejoin="round"/>
</svg>
